<svg width="32" height="32" viewBox="0 0 32 32" fill="none" xmlns="http://www.w3.org/2000/svg">
<path d="M11.52 0.111237L4.68625 4.47999L5.52875 5.01874L11.52 8.84874V5.85999L16.64 8.78249V5.15249C23.0634 5.48645 28.16 10.7724 28.16 17.28C28.16 24.0036 22.7236 29.44 16 29.44C9.27642 29.44 3.84 24.0036 3.84 17.28C3.8412 17.1952 3.82553 17.111 3.79391 17.0323C3.76228 16.9536 3.71533 16.8819 3.65578 16.8216C3.59623 16.7612 3.52528 16.7132 3.44703 16.6805C3.36879 16.6477 3.28482 16.6309 3.2 16.6309C3.11518 16.6309 3.03121 16.6477 2.95297 16.6805C2.87472 16.7132 2.80377 16.7612 2.74422 16.8216C2.68467 16.8819 2.63772 16.9536 2.60609 17.0323C2.57447 17.111 2.5588 17.1952 2.56 17.28C2.56 24.6953 8.5847 30.72 16 30.72C23.4153 30.72 29.44 24.6953 29.44 17.28C29.44 10.0792 23.7588 4.19101 16.64 3.85624V0.177487L11.52 3.09999V0.111237ZM15.36 2.38249V4.37249C15.3486 4.4416 15.3486 4.51212 15.36 4.58124V6.57749L11.685 4.47999L15.36 2.38249ZM10.24 2.44874V3.65499V5.30499V6.51124L7.06125 4.47999L10.24 2.44874ZM12.16 12.16C12.16 13.6 10.88 14.08 9.6 14.08V15.36H12.16V22.4H12.2238H13.44V12.16H12.16ZM16.16 12.16L15.46 16.865L16.57 17.3875C16.995 16.9132 17.6038 16.64 18.24 16.64C19.4752 16.64 20.48 17.6448 20.48 18.88C20.48 20.1152 19.4752 21.12 18.24 21.12C16.9786 21.12 16 20.0883 16 19.2H14.72C14.72 20.9043 16.3648 22.4 18.24 22.4C20.1811 22.4 21.76 20.8205 21.76 18.88C21.76 16.9395 20.1811 15.36 18.24 15.36C17.792 15.36 17.3533 15.4456 16.945 15.6075L17.2712 13.44H21.12V12.16H16.16Z" fill="#D2D2D2"/>
</svg>
