<svg width="32" height="32" viewBox="0 0 32 32" fill="none" xmlns="http://www.w3.org/2000/svg">
<path d="M7.66665 4.00001C5.65347 4.00001 3.99998 5.65349 3.99998 7.66667V11.6667C3.99811 11.7992 4.02259 11.9307 4.072 12.0537C4.12142 12.1767 4.19478 12.2886 4.28782 12.383C4.38087 12.4773 4.49174 12.5523 4.614 12.6034C4.73625 12.6546 4.86746 12.6809 4.99998 12.6809C5.13251 12.6809 5.26371 12.6546 5.38597 12.6034C5.50822 12.5523 5.6191 12.4773 5.71214 12.383C5.80519 12.2886 5.87855 12.1767 5.92796 12.0537C5.97737 11.9307 6.00186 11.7992 5.99998 11.6667V7.66667C5.99998 6.73452 6.7345 6.00001 7.66665 6.00001H11.6666C11.7992 6.00188 11.9307 5.9774 12.0537 5.92799C12.1767 5.87857 12.2886 5.80521 12.383 5.71217C12.4773 5.61912 12.5523 5.50825 12.6034 5.38599C12.6546 5.26374 12.6809 5.13253 12.6809 5.00001C12.6809 4.86748 12.6546 4.73628 12.6034 4.61402C12.5523 4.49177 12.4773 4.38089 12.383 4.28785C12.2886 4.1948 12.1767 4.12144 12.0537 4.07203C11.9307 4.02262 11.7992 3.99813 11.6666 4.00001H7.66665ZM20.3333 4.00001C20.2008 3.99813 20.0692 4.02262 19.9463 4.07203C19.8233 4.12144 19.7114 4.1948 19.617 4.28785C19.5226 4.38089 19.4477 4.49177 19.3966 4.61402C19.3454 4.73628 19.3191 4.86748 19.3191 5.00001C19.3191 5.13253 19.3454 5.26374 19.3966 5.38599C19.4477 5.50825 19.5226 5.61912 19.617 5.71217C19.7114 5.80521 19.8233 5.87857 19.9463 5.92799C20.0692 5.9774 20.2008 6.00188 20.3333 6.00001H24.3333C25.2655 6.00001 26 6.73452 26 7.66667V11.6667C25.9981 11.7992 26.0226 11.9307 26.072 12.0537C26.1214 12.1767 26.1948 12.2886 26.2878 12.383C26.3809 12.4773 26.4917 12.5523 26.614 12.6034C26.7363 12.6546 26.8675 12.6809 27 12.6809C27.1325 12.6809 27.2637 12.6546 27.386 12.6034C27.5082 12.5523 27.6191 12.4773 27.7121 12.383C27.8052 12.2886 27.8785 12.1767 27.928 12.0537C27.9774 11.9307 28.0019 11.7992 28 11.6667V7.66667C28 5.65349 26.3465 4.00001 24.3333 4.00001H20.3333ZM4.98436 19.319C4.71937 19.3232 4.46686 19.4323 4.28229 19.6225C4.09772 19.8127 3.99618 20.0683 3.99998 20.3333V24.3333C3.99998 26.3465 5.65347 28 7.66665 28H11.6666C11.7992 28.0019 11.9307 27.9774 12.0537 27.928C12.1767 27.8786 12.2886 27.8052 12.383 27.7122C12.4773 27.6191 12.5523 27.5082 12.6034 27.386C12.6546 27.2637 12.6809 27.1325 12.6809 27C12.6809 26.8675 12.6546 26.7363 12.6034 26.614C12.5523 26.4918 12.4773 26.3809 12.383 26.2878C12.2886 26.1948 12.1767 26.1214 12.0537 26.072C11.9307 26.0226 11.7992 25.9981 11.6666 26H7.66665C6.7345 26 5.99998 25.2655 5.99998 24.3333V20.3333C6.0019 20.1995 5.97693 20.0666 5.92656 19.9426C5.87618 19.8186 5.80142 19.706 5.70671 19.6114C5.612 19.5168 5.49926 19.4422 5.37518 19.3919C5.2511 19.3417 5.1182 19.3169 4.98436 19.319ZM26.9844 19.319C26.7194 19.3232 26.4669 19.4323 26.2823 19.6225C26.0977 19.8127 25.9962 20.0683 26 20.3333V24.3333C26 25.2655 25.2655 26 24.3333 26H20.3333C20.2008 25.9981 20.0692 26.0226 19.9463 26.072C19.8233 26.1214 19.7114 26.1948 19.617 26.2878C19.5226 26.3809 19.4477 26.4918 19.3966 26.614C19.3454 26.7363 19.3191 26.8675 19.3191 27C19.3191 27.1325 19.3454 27.2637 19.3966 27.386C19.4477 27.5082 19.5226 27.6191 19.617 27.7122C19.7114 27.8052 19.8233 27.8786 19.9463 27.928C20.0692 27.9774 20.2008 28.0019 20.3333 28H24.3333C26.3465 28 28 26.3465 28 24.3333V20.3333C28.0019 20.1995 27.9769 20.0666 27.9266 19.9426C27.8762 19.8186 27.8014 19.706 27.7067 19.6114C27.612 19.5168 27.4993 19.4422 27.3752 19.3919C27.2511 19.3417 27.1182 19.3169 26.9844 19.319Z" fill="#D2D2D2"/>
</svg>
