<svg width="22" height="22" viewBox="0 0 22 22" fill="none" xmlns="http://www.w3.org/2000/svg">
<path fill-rule="evenodd" clip-rule="evenodd" d="M4.33203 7.6663C3.87179 7.6663 3.4987 8.0394 3.4987 8.49963V17.6663C3.4987 18.1265 3.87179 18.4996 4.33203 18.4996H17.6654C18.1256 18.4996 18.4987 18.1265 18.4987 17.6663V8.49963C18.4987 8.0394 18.1256 7.6663 17.6654 7.6663H4.33203ZM1.83203 8.49963C1.83203 7.11892 2.95132 5.99963 4.33203 5.99963H17.6654C19.0461 5.99963 20.1654 7.11892 20.1654 8.49963V17.6663C20.1654 19.047 19.0461 20.1663 17.6654 20.1663H4.33203C2.95132 20.1663 1.83203 19.047 1.83203 17.6663V8.49963Z" fill="#EC008B"/>
<path fill-rule="evenodd" clip-rule="evenodd" d="M6.24383 2.07611C6.56927 1.75067 7.09691 1.75067 7.42234 2.07611L10.9998 5.65352L14.5772 2.07611C14.9026 1.75067 15.4302 1.75067 15.7557 2.07611C16.0811 2.40155 16.0811 2.92918 15.7557 3.25462L11.589 7.42129C11.2636 7.74672 10.7359 7.74672 10.4105 7.42129L6.24383 3.25462C5.9184 2.92918 5.9184 2.40155 6.24383 2.07611Z" fill="#EC008B"/>
<path d="M9.00911 16.1669C8.86745 16.1669 8.71745 16.1336 8.59245 16.0503C8.33411 15.9003 8.17578 15.6253 8.17578 15.3336V10.8253C8.17578 10.5253 8.33411 10.2503 8.59245 10.1086C8.85078 9.95859 9.16745 9.95859 9.42578 10.1086L13.3924 12.3669C13.6508 12.5169 13.8174 12.7919 13.8174 13.0919C13.8174 13.3919 13.6591 13.6669 13.3924 13.8169L9.42578 16.0753C9.29245 16.1253 9.15078 16.1669 9.00911 16.1669ZM9.30911 11.3086V14.8419L12.4091 13.0753L9.30911 11.3086Z" fill="#EC008B"/>
</svg>
