<svg width="32" height="32" viewBox="0 0 32 32" fill="none" xmlns="http://www.w3.org/2000/svg">
<path d="M20.48 0.111237V3.09999L15.36 0.177487V3.85624C8.24115 4.19101 2.56 10.0792 2.56 17.28C2.56 24.6953 8.5847 30.72 16 30.72C23.4153 30.72 29.44 24.6953 29.44 17.28C29.4412 17.1952 29.4255 17.111 29.3939 17.0323C29.3623 16.9536 29.3153 16.8819 29.2558 16.8216C29.1962 16.7612 29.1253 16.7132 29.047 16.6805C28.9688 16.6477 28.8848 16.6309 28.8 16.6309C28.7152 16.6309 28.6312 16.6477 28.553 16.6805C28.4747 16.7132 28.4038 16.7612 28.3442 16.8216C28.2847 16.8819 28.2377 16.9536 28.2061 17.0323C28.1745 17.111 28.1588 17.1952 28.16 17.28C28.16 24.0036 22.7236 29.44 16 29.44C9.27642 29.44 3.84 24.0036 3.84 17.28C3.84 10.7724 8.93664 5.48645 15.36 5.15249V8.78249L20.48 5.85999V8.84874L21.465 8.21874L27.3137 4.47999L20.48 0.111237ZM16.64 2.38249L20.315 4.47999L16.64 6.57749V4.58749C16.6514 4.51837 16.6514 4.44785 16.64 4.37874V2.38249ZM21.76 2.44874L24.9387 4.47999L21.76 6.51124V5.30499V3.65499V2.44874ZM12.16 12.8C12.16 14.24 10.88 14.72 9.6 14.72V16H12.16V23.04H12.2237H13.44V12.8H12.16ZM16.16 12.8L15.46 17.505L16.57 18.0275C16.995 17.5532 17.6038 17.28 18.24 17.28C19.4752 17.28 20.48 18.2848 20.48 19.52C20.48 20.7552 19.4752 21.76 18.24 21.76C16.9786 21.76 16 20.7283 16 19.84H14.72C14.72 21.5443 16.3648 23.04 18.24 23.04C20.1811 23.04 21.76 21.4605 21.76 19.52C21.76 17.5795 20.1811 16 18.24 16C17.792 16 17.3533 16.0856 16.945 16.2475L17.2712 14.08H21.12V12.8H16.16Z" fill="#D2D2D2"/>
</svg>
