<svg width="18" height="19" viewBox="0 0 18 19" fill="none" xmlns="http://www.w3.org/2000/svg">
<path d="M8.046 1.02478C9.91407 1.02695 11.705 1.78838 13.0259 3.14203C14.3469 4.49568 15.0899 6.331 15.092 8.24534C15.0939 9.93042 14.5181 11.5626 13.465 12.8568L16.809 16.2837C16.931 16.4087 16.9995 16.5783 16.9995 16.7551C16.9995 16.9319 16.931 17.1014 16.809 17.2265C16.687 17.3515 16.5215 17.4217 16.349 17.4217C16.1765 17.4217 16.011 17.3515 15.889 17.2265L12.545 13.7986C11.2824 14.8775 9.69 15.4676 8.046 15.4659C6.17793 15.4637 4.38699 14.7023 3.06606 13.3487C1.74514 11.995 1.00212 10.1597 1 8.24534C1.00212 6.331 1.74514 4.49568 3.06606 3.14203C4.38699 1.78838 6.17793 1.02695 8.046 1.02478ZM8.046 2.35699C6.52273 2.35889 5.06239 2.97991 3.98536 4.08381C2.90834 5.18771 2.30259 6.68433 2.301 8.24534C2.30285 9.80618 2.90872 11.3025 3.98572 12.4062C5.06271 13.5099 6.5229 14.1308 8.046 14.1327C9.5691 14.1308 11.0293 13.5099 12.1063 12.4062C13.1833 11.3025 13.7891 9.80618 13.791 8.24534C13.7891 6.68451 13.1833 5.18815 12.1063 4.08447C11.0293 2.98079 9.5691 2.35991 8.046 2.35801V2.35699Z" fill="white" stroke="white" stroke-width="0.5"/>
</svg>
