<svg width="32" height="32" viewBox="0 0 32 32" fill="none" xmlns="http://www.w3.org/2000/svg">
<path opacity="0.35" d="M24 4H8C5.79067 4 4 5.79067 4 8V24C4 26.2093 5.79067 28 8 28H8.01733L8.15467 29.2707C8.28933 30.5213 9.708 31.1773 10.7493 30.4707L14.3813 28H24C26.2093 28 28 26.2093 28 24V8C28 5.79067 26.2093 4 24 4Z" fill="white"/>
<path d="M16 18C17.1046 18 18 17.1046 18 16C18 14.8954 17.1046 14 16 14C14.8954 14 14 14.8954 14 16C14 17.1046 14.8954 18 16 18Z" fill="#D2D2D2"/>
<path d="M22.6666 18C23.7712 18 24.6666 17.1046 24.6666 16C24.6666 14.8954 23.7712 14 22.6666 14C21.5621 14 20.6666 14.8954 20.6666 16C20.6666 17.1046 21.5621 18 22.6666 18Z" fill="#D2D2D2"/>
<path d="M9.33337 18C10.4379 18 11.3334 17.1046 11.3334 16C11.3334 14.8954 10.4379 14 9.33337 14C8.2288 14 7.33337 14.8954 7.33337 16C7.33337 17.1046 8.2288 18 9.33337 18Z" fill="#D2D2D2"/>
</svg>
