<svg width="32" height="32" viewBox="0 0 32 32" fill="none" xmlns="http://www.w3.org/2000/svg">
<path d="M16 1.28C7.87798 1.28 1.28003 7.87795 1.28003 16C1.28003 24.122 7.87798 30.72 16 30.72C24.1221 30.72 30.72 24.122 30.72 16C30.72 7.87795 24.1221 1.28 16 1.28ZM16 2.56C23.4303 2.56 29.44 8.56971 29.44 16C29.44 23.4303 23.4303 29.44 16 29.44C8.56974 29.44 2.56003 23.4303 2.56003 16C2.56003 8.56971 8.56974 2.56 16 2.56ZM16.185 8.005C13.7978 8.005 12.215 9.45148 11.87 11.655C11.8476 11.7932 11.9155 11.8845 12.0538 11.9075L13.5 12.1612C13.6383 12.1843 13.7295 12.1151 13.7525 11.9775C14.0277 10.5772 14.8537 9.79625 16.1388 9.79625C17.4476 9.79625 18.365 10.6231 18.365 11.9312C18.365 12.712 18.0901 13.2398 17.2875 14.3412L15.7488 16.4525C15.2669 17.1187 15.0613 17.601 15.0613 18.52V19.46C15.0613 19.5976 15.1524 19.6901 15.29 19.6875H16.805C16.9426 19.6875 17.0338 19.5963 17.0338 19.4587V18.725C17.0338 17.9448 17.1724 17.6233 17.6313 17.0037L19.1688 14.8912C19.9496 13.8122 20.3388 13.0096 20.3388 11.9075C20.3388 9.63486 18.6631 8.005 16.185 8.005ZM15.1763 21.435C15.038 21.435 14.9463 21.5274 14.9463 21.665V23.6387C14.9463 23.7763 15.0374 23.8675 15.1763 23.8675H16.9213C17.0582 23.8675 17.15 23.777 17.15 23.6387V21.665C17.15 21.528 17.0589 21.435 16.9213 21.435H15.1763Z" fill="#D2D2D2"/>
</svg>
