<svg width="32" height="32" viewBox="0 0 32 32" fill="none" xmlns="http://www.w3.org/2000/svg">
<path d="M6.73442 9.23958C6.01873 9.20477 5.33337 9.76191 5.33337 10.5729V21.4271C5.33337 22.5084 6.55094 23.1396 7.43494 22.5156L15.125 17.0885C15.877 16.5579 15.877 15.4421 15.125 14.9115L7.43494 9.48437C7.21394 9.32837 6.97298 9.25119 6.73442 9.23958ZM18.7344 9.23958C18.0187 9.20477 17.3334 9.76191 17.3334 10.5729V21.4271C17.3334 22.5084 18.5509 23.1396 19.4349 22.5156L27.125 17.0885C27.877 16.5579 27.877 15.4421 27.125 14.9115L19.4349 9.48437C19.2139 9.32837 18.973 9.25119 18.7344 9.23958Z" fill="#D2D2D2"/>
</svg>
