<svg width="32" height="32" viewBox="0 0 32 32" fill="none" xmlns="http://www.w3.org/2000/svg">
<path d="M18.1445 4.73438C18.0566 4.73424 17.9683 4.74068 17.8802 4.75261C17.5278 4.8003 17.1802 4.94571 16.8932 5.20052C16.8932 5.20096 16.8932 5.20139 16.8932 5.20183L10.7448 10.6667H6.33333C4.68833 10.6667 3.33333 12.0217 3.33333 13.6667V18.3333C3.33333 19.9783 4.68833 21.3333 6.33333 21.3333H10.7448L16.8932 26.7982C17.4671 27.3084 18.281 27.3834 18.8971 27.1068C19.5133 26.8301 20 26.1716 20 25.4036V6.59636C20 5.82871 19.5146 5.16999 18.8984 4.89323C18.6674 4.78945 18.4082 4.73479 18.1445 4.73438ZM25.8372 7.98698C25.6637 7.98627 25.4931 8.0307 25.3419 8.1159C25.1908 8.20111 25.0645 8.32416 24.9753 8.47297C24.8861 8.62178 24.8372 8.79123 24.8333 8.96467C24.8294 9.13812 24.8707 9.30959 24.9531 9.46224C27.2593 13.8787 27.2593 18.1213 24.9531 22.5378C24.8899 22.6544 24.8505 22.7825 24.8372 22.9145C24.824 23.0466 24.8371 23.1799 24.8759 23.3069C24.9147 23.4338 24.9784 23.5517 25.0632 23.6537C25.148 23.7558 25.2523 23.8399 25.37 23.9013C25.4877 23.9626 25.6164 23.9999 25.7486 24.011C25.8809 24.0221 26.014 24.0068 26.1403 23.9659C26.2665 23.9251 26.3834 23.8595 26.484 23.773C26.5847 23.6865 26.6671 23.5809 26.7266 23.4622C29.287 18.5587 29.287 13.4413 26.7266 8.53776C26.6436 8.37281 26.5166 8.23404 26.3596 8.13683C26.2027 8.03961 26.0219 7.98775 25.8372 7.98698ZM22.7812 11.3307C22.6162 11.3378 22.4555 11.3856 22.3135 11.4699C22.1715 11.5541 22.0525 11.6723 21.9673 11.8138C21.882 11.9552 21.8332 12.1156 21.825 12.2806C21.8169 12.4455 21.8497 12.6099 21.9206 12.7591C22.9316 14.9714 22.9302 17.0399 21.9154 19.2526C21.8597 19.3721 21.8282 19.5014 21.8227 19.6331C21.8172 19.7647 21.8377 19.8962 21.8832 20.0199C21.9287 20.1436 21.9981 20.2571 22.0876 20.3539C22.1771 20.4507 22.2848 20.5288 22.4046 20.5838C22.5244 20.6388 22.6538 20.6696 22.7855 20.6744C22.9173 20.6792 23.0486 20.6579 23.1721 20.6117C23.2955 20.5656 23.4086 20.4955 23.5049 20.4055C23.6012 20.3155 23.6787 20.2073 23.7331 20.0872C24.9582 17.416 24.9605 14.5988 23.7396 11.9271C23.6585 11.7427 23.5236 11.5872 23.3526 11.4808C23.1816 11.3744 22.9825 11.3221 22.7812 11.3307Z" fill="#D2D2D2"/>
</svg>
